# This file uses centimeters as units for non-parametric coordinates.

mtllib selector.mtl
g default
v 0.489074 -0.100000 -0.103956
v 0.456773 -0.100000 -0.203368
v 0.404509 -0.100000 -0.293893
v 0.334566 -0.100000 -0.371573
v 0.250000 -0.100000 -0.433013
v 0.154509 -0.100000 -0.475529
v 0.052264 -0.100000 -0.497261
v -0.052264 -0.100000 -0.497261
v -0.154509 -0.100000 -0.475529
v -0.250000 -0.100000 -0.433013
v -0.334565 -0.100000 -0.371573
v -0.404509 -0.100000 -0.293893
v -0.456773 -0.100000 -0.203368
v -0.489074 -0.100000 -0.103956
v -0.500000 -0.100000 -0.000000
v -0.489074 -0.100000 0.103956
v -0.456773 -0.100000 0.203368
v -0.404509 -0.100000 0.293893
v -0.334565 -0.100000 0.371573
v -0.250000 -0.100000 0.433013
v -0.154509 -0.100000 0.475528
v -0.052264 -0.100000 0.497261
v 0.052264 -0.100000 0.497261
v 0.154509 -0.100000 0.475528
v 0.250000 -0.100000 0.433013
v 0.334565 -0.100000 0.371572
v 0.404509 -0.100000 0.293893
v 0.456773 -0.100000 0.203368
v 0.489074 -0.100000 0.103956
v 0.500000 -0.100000 0.000000
v 0.000000 -0.100000 0.000000
v 0.489074 0.000000 -0.103956
v 0.500000 0.000000 0.000000
v 0.489074 0.000000 0.103956
v 0.456773 0.000000 0.203368
v 0.404509 0.000000 0.293893
v 0.334565 0.000000 0.371572
v 0.250000 0.000000 0.433013
v 0.154509 0.000000 0.475528
v 0.052264 0.000000 0.497261
v -0.052264 0.000000 0.497261
v -0.154509 0.000000 0.475528
v -0.250000 0.000000 0.433013
v -0.334565 0.000000 0.371573
v -0.404509 0.000000 0.293893
v -0.456773 0.000000 0.203368
v -0.489074 0.000000 0.103956
v -0.500000 0.000000 -0.000000
v -0.489074 0.000000 -0.103956
v -0.456773 0.000000 -0.203368
v -0.404509 0.000000 -0.293893
v -0.334565 0.000000 -0.371573
v -0.250000 0.000000 -0.433013
v -0.154509 0.000000 -0.475529
v -0.052264 0.000000 -0.497261
v 0.052264 0.000000 -0.497261
v 0.154509 0.000000 -0.475529
v 0.250000 0.000000 -0.433013
v 0.334566 0.000000 -0.371573
v 0.404509 0.000000 -0.293893
v 0.456773 0.000000 -0.203368
v 0.419210 0.100000 -0.089106
v 0.391523 0.100000 -0.174317
v -0.000000 0.100000 -0.000000
v 0.346725 0.100000 -0.251910
v 0.286773 0.100000 -0.318494
v 0.214288 0.100000 -0.371157
v 0.132437 0.100000 -0.407600
v 0.044798 0.100000 -0.426228
v -0.044798 0.100000 -0.426228
v -0.132437 0.100000 -0.407600
v -0.214288 0.100000 -0.371157
v -0.286773 0.100000 -0.318494
v -0.346725 0.100000 -0.251910
v -0.391523 0.100000 -0.174317
v -0.419210 0.100000 -0.089106
v -0.428575 0.100000 -0.000000
v -0.419210 0.100000 0.089106
v -0.391523 0.100000 0.174317
v -0.346725 0.100000 0.251910
v -0.286773 0.100000 0.318493
v -0.214288 0.100000 0.371157
v -0.132437 0.100000 0.407599
v -0.044798 0.100000 0.426227
v 0.044798 0.100000 0.426227
v 0.132437 0.100000 0.407599
v 0.214288 0.100000 0.371157
v 0.286773 0.100000 0.318493
v 0.346725 0.100000 0.251910
v 0.391523 0.100000 0.174317
v 0.419210 0.100000 0.089106
v 0.428575 0.100000 -0.000000
v 0.419210 0.000000 -0.089106
v 0.428575 0.000000 -0.000000
v 0.419210 0.000000 0.089106
v 0.391523 0.000000 0.174317
v 0.346725 0.000000 0.251910
v 0.286773 0.000000 0.318493
v 0.214288 0.000000 0.371157
v 0.132437 0.000000 0.407599
v 0.044798 0.000000 0.426227
v -0.044798 0.000000 0.426227
v -0.132437 0.000000 0.407599
v -0.214288 0.000000 0.371157
v -0.286773 0.000000 0.318493
v -0.346725 0.000000 0.251910
v -0.391523 0.000000 0.174317
v -0.419210 0.000000 0.089106
v -0.428575 0.000000 -0.000000
v -0.419210 0.000000 -0.089106
v -0.391523 0.000000 -0.174317
v -0.346725 0.000000 -0.251910
v -0.286773 0.000000 -0.318494
v -0.214288 0.000000 -0.371157
v -0.132437 0.000000 -0.407600
v -0.044798 0.000000 -0.426228
v 0.044798 0.000000 -0.426228
v 0.132437 0.000000 -0.407600
v 0.214288 0.000000 -0.371157
v 0.286773 0.000000 -0.318494
v 0.346725 0.000000 -0.251910
v 0.391523 0.000000 -0.174317
vt 0.652836 0.123764
vt 0.642742 0.092697
vt 0.626409 0.064408
vt 0.604552 0.040134
vt 0.578125 0.020933
vt 0.548284 0.007647
vt 0.516333 0.000856
vt 0.483667 0.000856
vt 0.451716 0.007647
vt 0.421875 0.020933
vt 0.395448 0.040134
vt 0.373591 0.064408
vt 0.357258 0.092697
vt 0.347164 0.123764
vt 0.343750 0.156250
vt 0.347164 0.188736
vt 0.357258 0.219803
vt 0.373591 0.248091
vt 0.395448 0.272366
vt 0.421875 0.291567
vt 0.451716 0.304853
vt 0.483667 0.311644
vt 0.516333 0.311644
vt 0.548284 0.304853
vt 0.578125 0.291566
vt 0.604552 0.272366
vt 0.626409 0.248091
vt 0.642742 0.219803
vt 0.652836 0.188736
vt 0.656250 0.156250
vt 0.375000 0.312500
vt 0.383333 0.312500
vt 0.391667 0.312500
vt 0.400000 0.312500
vt 0.408333 0.312500
vt 0.416667 0.312500
vt 0.425000 0.312500
vt 0.433333 0.312500
vt 0.441667 0.312500
vt 0.450000 0.312500
vt 0.458333 0.312500
vt 0.466667 0.312500
vt 0.475000 0.312500
vt 0.483333 0.312500
vt 0.491667 0.312500
vt 0.500000 0.312500
vt 0.508333 0.312500
vt 0.516667 0.312500
vt 0.525000 0.312500
vt 0.533333 0.312500
vt 0.541667 0.312500
vt 0.550000 0.312500
vt 0.558333 0.312500
vt 0.566666 0.312500
vt 0.575000 0.312500
vt 0.583333 0.312500
vt 0.591666 0.312500
vt 0.600000 0.312500
vt 0.608333 0.312500
vt 0.616666 0.312500
vt 0.625000 0.312500
vt 0.375000 0.688440
vt 0.383333 0.688440
vt 0.391667 0.688440
vt 0.400000 0.688440
vt 0.408333 0.688440
vt 0.416667 0.688440
vt 0.425000 0.688440
vt 0.433333 0.688440
vt 0.441667 0.688440
vt 0.450000 0.688440
vt 0.458333 0.688440
vt 0.466667 0.688440
vt 0.475000 0.688440
vt 0.483333 0.688440
vt 0.491667 0.688440
vt 0.500000 0.688440
vt 0.508333 0.688440
vt 0.516667 0.688440
vt 0.525000 0.688440
vt 0.533333 0.688440
vt 0.541667 0.688440
vt 0.550000 0.688440
vt 0.558333 0.688440
vt 0.566666 0.688440
vt 0.575000 0.688440
vt 0.583333 0.688440
vt 0.591666 0.688440
vt 0.600000 0.688440
vt 0.608333 0.688440
vt 0.616666 0.688440
vt 0.625000 0.688440
vt 0.652836 0.811264
vt 0.642742 0.780197
vt 0.626409 0.751908
vt 0.604552 0.727634
vt 0.578125 0.708433
vt 0.548284 0.695147
vt 0.516333 0.688356
vt 0.483667 0.688356
vt 0.451716 0.695147
vt 0.421875 0.708433
vt 0.395448 0.727634
vt 0.373591 0.751908
vt 0.357258 0.780197
vt 0.347164 0.811264
vt 0.343750 0.843750
vt 0.347164 0.876236
vt 0.357258 0.907303
vt 0.373591 0.935591
vt 0.395448 0.959866
vt 0.421875 0.979066
vt 0.451716 0.992353
vt 0.483667 0.999144
vt 0.516333 0.999144
vt 0.548284 0.992353
vt 0.578125 0.979066
vt 0.604552 0.959866
vt 0.626409 0.935591
vt 0.642742 0.907303
vt 0.652836 0.876236
vt 0.656250 0.843750
vt 0.500000 0.150000
vt 0.500000 0.837500
vt 0.625000 0.500470
vt 0.375000 0.500470
vt 0.616666 0.500470
vt 0.608333 0.500470
vt 0.600000 0.500470
vt 0.591666 0.500470
vt 0.583333 0.500470
vt 0.575000 0.500470
vt 0.566666 0.500470
vt 0.558333 0.500470
vt 0.550000 0.500470
vt 0.541667 0.500470
vt 0.533333 0.500470
vt 0.525000 0.500470
vt 0.516667 0.500470
vt 0.508333 0.500470
vt 0.500000 0.500470
vt 0.491667 0.500470
vt 0.483333 0.500470
vt 0.475000 0.500470
vt 0.466667 0.500470
vt 0.458333 0.500470
vt 0.450000 0.500470
vt 0.441667 0.500470
vt 0.433333 0.500470
vt 0.425000 0.500470
vt 0.416667 0.500470
vt 0.408333 0.500470
vt 0.400000 0.500470
vt 0.391667 0.500470
vt 0.383333 0.500470
vt 0.616666 0.500470
vt 0.625000 0.500470
vt 0.608333 0.500470
vt 0.600000 0.500470
vt 0.591666 0.500470
vt 0.583333 0.500470
vt 0.575000 0.500470
vt 0.566666 0.500470
vt 0.558333 0.500470
vt 0.550000 0.500470
vt 0.541667 0.500470
vt 0.533333 0.500470
vt 0.525000 0.500470
vt 0.516667 0.500470
vt 0.508333 0.500470
vt 0.500000 0.500470
vt 0.491667 0.500470
vt 0.483333 0.500470
vt 0.475000 0.500470
vt 0.466667 0.500470
vt 0.458333 0.500470
vt 0.450000 0.500470
vt 0.441667 0.500470
vt 0.433333 0.500470
vt 0.425000 0.500470
vt 0.416667 0.500470
vt 0.408333 0.500470
vt 0.400000 0.500470
vt 0.391667 0.500470
vt 0.383333 0.500470
vt 0.375000 0.500470
vn 0.978148 0.000000 -0.207909
vn 0.913545 0.000000 -0.406737
vn 0.913545 0.000000 -0.406737
vn 0.978148 0.000000 -0.207909
vn 0.809017 0.000000 -0.587785
vn 0.809017 0.000000 -0.587785
vn 0.669131 0.000000 -0.743145
vn 0.669131 0.000000 -0.743145
vn 0.500000 0.000000 -0.866025
vn 0.500000 0.000000 -0.866025
vn 0.309017 0.000000 -0.951057
vn 0.309017 0.000000 -0.951057
vn 0.104529 0.000000 -0.994522
vn 0.104529 0.000000 -0.994522
vn -0.104528 0.000000 -0.994522
vn -0.104528 0.000000 -0.994522
vn -0.309017 0.000000 -0.951057
vn -0.309017 0.000000 -0.951057
vn -0.500000 0.000000 -0.866025
vn -0.500000 0.000000 -0.866025
vn -0.669131 0.000000 -0.743145
vn -0.669131 0.000000 -0.743145
vn -0.809017 0.000000 -0.587785
vn -0.809017 0.000000 -0.587785
vn -0.913546 0.000000 -0.406737
vn -0.913546 0.000000 -0.406737
vn -0.978148 0.000000 -0.207912
vn -0.978148 0.000000 -0.207912
vn -1.000000 0.000000 0.000000
vn -1.000000 0.000000 0.000000
vn -0.978148 0.000000 0.207912
vn -0.978148 0.000000 0.207912
vn -0.913546 0.000000 0.406737
vn -0.913546 0.000000 0.406737
vn -0.809017 0.000000 0.587785
vn -0.809017 0.000000 0.587785
vn -0.669131 0.000000 0.743145
vn -0.669131 0.000000 0.743145
vn -0.500000 0.000000 0.866025
vn -0.500000 0.000000 0.866025
vn -0.309017 0.000000 0.951057
vn -0.309017 0.000000 0.951057
vn -0.104529 0.000000 0.994522
vn -0.104529 0.000000 0.994522
vn 0.104529 0.000000 0.994522
vn 0.104529 0.000000 0.994522
vn 0.309017 0.000000 0.951057
vn 0.309017 0.000000 0.951057
vn 0.500000 0.000000 0.866025
vn 0.500000 0.000000 0.866025
vn 0.669131 0.000000 0.743145
vn 0.669131 0.000000 0.743145
vn 0.809017 0.000000 0.587785
vn 0.809017 0.000000 0.587785
vn 0.913546 0.000000 0.406737
vn 0.913546 0.000000 0.406737
vn 0.978148 0.000000 0.207911
vn 0.978148 0.000000 0.207911
vn 1.000000 0.000000 0.000002
vn 1.000000 0.000000 0.000002
vn 0.000000 -1.000000 0.000000
vn 0.000000 -1.000000 0.000000
vn 0.000000 -1.000000 -0.000000
vn 0.000000 -1.000000 0.000000
vn 0.000000 -1.000000 0.000000
vn 0.000000 -1.000000 0.000000
vn 0.000000 -1.000000 0.000000
vn 0.000000 -1.000000 0.000000
vn 0.000000 -1.000000 0.000000
vn 0.000000 -1.000000 0.000000
vn 0.000000 -1.000000 0.000000
vn 0.000000 -1.000000 -0.000000
vn 0.000000 -1.000000 -0.000000
vn 0.000000 -1.000000 0.000000
vn 0.000000 -1.000000 0.000000
vn 0.000000 -1.000000 0.000000
vn 0.000000 -1.000000 0.000000
vn 0.000000 -1.000000 0.000000
vn 0.000000 -1.000000 0.000000
vn 0.000000 -1.000000 0.000000
vn 0.000000 -1.000000 -0.000000
vn 0.000000 -1.000000 -0.000000
vn 0.000000 -1.000000 0.000000
vn 0.000000 -1.000000 0.000000
vn 0.000000 -1.000000 0.000000
vn 0.000000 -1.000000 0.000000
vn 0.000000 -1.000000 0.000000
vn 0.000000 -1.000000 0.000000
vn 0.000000 -1.000000 -0.000000
vn 0.000000 -1.000000 -0.000000
vn 0.000000 -1.000000 0.000000
vn 0.000000 1.000000 0.000000
vn 0.000000 1.000000 0.000000
vn 0.000000 1.000000 0.000000
vn 0.000000 1.000000 0.000000
vn 0.000000 1.000000 -0.000000
vn 0.000000 1.000000 -0.000000
vn 0.000000 1.000000 0.000000
vn 0.000000 1.000000 0.000000
vn 0.000000 1.000000 -0.000000
vn 0.000000 1.000000 -0.000000
vn 0.000000 1.000000 0.000000
vn 0.000000 1.000000 0.000000
vn 0.000000 1.000000 0.000000
vn 0.000000 1.000000 0.000000
vn 0.000000 1.000000 0.000000
vn 0.000000 1.000000 0.000000
vn 0.000000 1.000000 0.000000
vn 0.000000 1.000000 0.000000
vn 0.000000 1.000000 0.000000
vn 0.000000 1.000000 -0.000000
vn 0.000000 1.000000 -0.000000
vn 0.000000 1.000000 0.000000
vn 0.000000 1.000000 0.000000
vn 0.000000 1.000000 -0.000000
vn 0.000000 1.000000 -0.000000
vn 0.000000 1.000000 0.000000
vn 0.000000 1.000000 0.000000
vn 0.000000 1.000000 0.000000
vn 0.000000 1.000000 0.000000
vn 0.000000 1.000000 0.000000
vn 0.000000 1.000000 0.000000
vn 1.000000 0.000000 0.000003
vn 0.978148 0.000000 -0.207909
vn 0.978148 0.000000 -0.207909
vn 1.000000 0.000000 0.000003
vn 0.978148 0.000000 0.207911
vn 0.978148 0.000000 0.207911
vn 0.913546 0.000000 0.406736
vn 0.913546 0.000000 0.406736
vn 0.809017 0.000000 0.587786
vn 0.809017 0.000000 0.587786
vn 0.669131 0.000000 0.743145
vn 0.669131 0.000000 0.743145
vn 0.500000 0.000000 0.866025
vn 0.500000 0.000000 0.866025
vn 0.309017 0.000000 0.951057
vn 0.309017 0.000000 0.951057
vn 0.104528 0.000000 0.994522
vn 0.104528 0.000000 0.994522
vn -0.104528 0.000000 0.994522
vn -0.104528 0.000000 0.994522
vn -0.309017 0.000000 0.951057
vn -0.309017 0.000000 0.951057
vn -0.500000 0.000000 0.866025
vn -0.500000 0.000000 0.866025
vn -0.669131 0.000000 0.743145
vn -0.669131 0.000000 0.743145
vn -0.809017 0.000000 0.587786
vn -0.809017 0.000000 0.587786
vn -0.913546 0.000000 0.406737
vn -0.913546 0.000000 0.406737
vn -0.978148 0.000000 0.207912
vn -0.978148 0.000000 0.207912
vn -1.000000 0.000000 0.000000
vn -1.000000 0.000000 0.000000
vn -0.978148 0.000000 -0.207911
vn -0.978148 0.000000 -0.207911
vn -0.913546 0.000000 -0.406736
vn -0.913546 0.000000 -0.406736
vn -0.809017 0.000000 -0.587785
vn -0.809017 0.000000 -0.587785
vn -0.669131 0.000000 -0.743145
vn -0.669131 0.000000 -0.743145
vn -0.500000 0.000000 -0.866025
vn -0.500000 0.000000 -0.866025
vn -0.309017 0.000000 -0.951057
vn -0.309017 0.000000 -0.951057
vn -0.104528 0.000000 -0.994522
vn -0.104528 0.000000 -0.994522
vn 0.104528 0.000000 -0.994522
vn 0.104528 0.000000 -0.994522
vn 0.309018 0.000000 -0.951056
vn 0.309018 0.000000 -0.951056
vn 0.500000 0.000000 -0.866025
vn 0.500000 0.000000 -0.866025
vn 0.669130 0.000000 -0.743145
vn 0.669130 0.000000 -0.743145
vn 0.809017 0.000000 -0.587785
vn 0.809017 0.000000 -0.587785
vn 0.913545 0.000000 -0.406737
vn 0.913545 0.000000 -0.406737
vn 0.000000 1.000000 0.000000
vn 0.000000 1.000000 0.000000
vn 0.000000 1.000000 0.000000
vn 0.000000 1.000000 0.000000
vn 0.000000 1.000000 0.000000
vn 0.000000 1.000000 0.000000
vn 0.000000 1.000000 0.000000
vn 0.000000 1.000000 0.000000
vn 0.000000 1.000000 0.000000
vn 0.000000 1.000000 0.000000
vn 0.000000 1.000000 0.000000
vn 0.000000 1.000000 0.000000
vn 0.000000 1.000000 0.000000
vn 0.000000 1.000000 0.000000
vn 0.000000 1.000000 0.000000
vn 0.000000 1.000000 0.000000
vn 0.000000 1.000000 0.000000
vn 0.000000 1.000000 0.000000
vn 0.000000 1.000000 0.000000
vn 0.000000 1.000000 0.000000
vn 0.000000 1.000000 0.000000
vn 0.000000 1.000000 0.000000
vn 0.000000 1.000000 0.000000
vn 0.000000 1.000000 0.000000
vn 0.000000 1.000000 0.000000
vn 0.000000 1.000000 0.000000
vn 0.000000 1.000000 0.000000
vn 0.000000 1.000000 0.000000
vn 0.000000 1.000000 0.000000
vn 0.000000 1.000000 0.000000
vn 0.000000 1.000000 0.000000
vn 0.000000 1.000000 0.000000
vn 0.000000 1.000000 0.000000
vn 0.000000 1.000000 0.000000
vn 0.000000 1.000000 0.000000
vn 0.000000 1.000000 0.000000
vn 0.000000 1.000000 0.000000
vn 0.000000 1.000000 0.000000
vn 0.000000 1.000000 0.000000
vn 0.000000 1.000000 0.000000
vn 0.000000 1.000000 0.000000
vn 0.000000 1.000000 0.000000
vn 0.000000 1.000000 0.000000
vn 0.000000 1.000000 0.000000
vn 0.000000 1.000000 0.000000
vn 0.000000 1.000000 0.000000
vn 0.000000 1.000000 0.000000
vn 0.000000 1.000000 0.000000
vn 0.000000 1.000000 0.000000
vn 0.000000 1.000000 0.000000
vn 0.000000 1.000000 0.000000
vn 0.000000 1.000000 0.000000
vn 0.000000 1.000000 0.000000
vn 0.000000 1.000000 0.000000
vn 0.000000 1.000000 0.000000
vn 0.000000 1.000000 0.000000
vn 0.000000 1.000000 0.000000
vn 0.000000 1.000000 0.000000
vn 0.000000 1.000000 0.000000
vn 0.000000 1.000000 0.000000
vn 0.000000 1.000000 0.000000
vn 0.000000 1.000000 0.000000
vn 0.000000 1.000000 0.000000
vn 0.000000 1.000000 0.000000
vn 0.000000 1.000000 0.000000
vn 0.000000 1.000000 0.000000
vn 0.000000 1.000000 0.000000
vn 0.000000 1.000000 0.000000
vn 0.000000 1.000000 0.000000
vn 0.000000 1.000000 0.000000
vn 0.000000 1.000000 0.000000
vn 0.000000 1.000000 0.000000
vn 0.000000 1.000000 0.000000
vn 0.000000 1.000000 0.000000
vn 0.000000 1.000000 0.000000
vn 0.000000 1.000000 0.000000
vn 0.000000 1.000000 0.000000
vn 0.000000 1.000000 0.000000
vn 0.000000 1.000000 0.000000
vn 0.000000 1.000000 0.000000
vn 0.000000 1.000000 0.000000
vn 0.000000 1.000000 0.000000
vn 0.000000 1.000000 0.000000
vn 0.000000 1.000000 0.000000
vn 0.000000 1.000000 0.000000
vn 0.000000 1.000000 0.000000
vn 0.000000 1.000000 0.000000
vn 0.000000 1.000000 0.000000
vn 0.000000 1.000000 0.000000
vn 0.000000 1.000000 0.000000
vn 0.000000 1.000000 0.000000
vn 0.000000 1.000000 0.000000
vn 0.000000 1.000000 0.000000
vn 0.000000 1.000000 0.000000
vn 0.000000 1.000000 0.000000
vn 0.000000 1.000000 0.000000
vn 0.000000 1.000000 0.000000
vn 0.000000 1.000000 0.000000
vn 0.000000 1.000000 0.000000
vn 0.000000 1.000000 0.000000
vn 0.000000 1.000000 0.000000
vn 0.000000 1.000000 0.000000
vn 0.000000 1.000000 0.000000
vn 0.000000 1.000000 0.000000
vn 0.000000 1.000000 0.000000
vn 0.000000 1.000000 0.000000
vn 0.000000 1.000000 0.000000
vn 0.000000 1.000000 0.000000
vn 0.000000 1.000000 0.000000
vn 0.000000 1.000000 0.000000
vn 0.000000 1.000000 0.000000
vn 0.000000 1.000000 0.000000
vn 0.000000 1.000000 0.000000
vn 0.000000 1.000000 0.000000
vn 0.000000 1.000000 0.000000
vn 0.000000 1.000000 0.000000
vn 0.000000 1.000000 0.000000
vn 0.000000 1.000000 0.000000
vn 0.000000 1.000000 0.000000
vn 0.000000 1.000000 0.000000
s 1
g selector
usemtl initialShadingGroup
f 1/31/1 2/32/2 61/155/3 32/126/4
f 2/32/2 3/33/5 60/154/6 61/155/3
f 3/33/5 4/34/7 59/153/8 60/154/6
f 4/34/7 5/35/9 58/152/10 59/153/8
f 5/35/9 6/36/11 57/151/12 58/152/10
f 6/36/11 7/37/13 56/150/14 57/151/12
f 7/37/13 8/38/15 55/149/16 56/150/14
f 8/38/15 9/39/17 54/148/18 55/149/16
f 9/39/17 10/40/19 53/147/20 54/148/18
f 10/40/19 11/41/21 52/146/22 53/147/20
f 11/41/21 12/42/23 51/145/24 52/146/22
f 12/42/23 13/43/25 50/144/26 51/145/24
f 13/43/25 14/44/27 49/143/28 50/144/26
f 14/44/27 15/45/29 48/142/30 49/143/28
f 15/45/29 16/46/31 47/141/32 48/142/30
f 16/46/31 17/47/33 46/140/34 47/141/32
f 17/47/33 18/48/35 45/139/36 46/140/34
f 18/48/35 19/49/37 44/138/38 45/139/36
f 19/49/37 20/50/39 43/137/40 44/138/38
f 20/50/39 21/51/41 42/136/42 43/137/40
f 21/51/41 22/52/43 41/135/44 42/136/42
f 22/52/43 23/53/45 40/134/46 41/135/44
f 23/53/45 24/54/47 39/133/48 40/134/46
f 24/54/47 25/55/49 38/132/50 39/133/48
f 25/55/49 26/56/51 37/131/52 38/132/50
f 26/56/51 27/57/53 36/130/54 37/131/52
f 27/57/53 28/58/55 35/129/56 36/130/54
f 28/58/55 29/59/57 34/128/58 35/129/56
f 29/59/57 30/60/59 33/127/60 34/128/58
f 30/60/59 1/61/1 32/125/4 33/127/60
s 2
f 2/2/61 1/1/62 31/123/63
f 3/3/64 2/2/61 31/123/63
f 4/4/65 3/3/64 31/123/63
f 5/5/66 4/4/65 31/123/63
f 6/6/67 5/5/66 31/123/63
f 7/7/68 6/6/67 31/123/63
f 8/8/69 7/7/68 31/123/63
f 9/9/70 8/8/69 31/123/63
f 10/10/71 9/9/70 31/123/63
f 11/11/72 10/10/71 31/123/63
f 12/12/73 11/11/72 31/123/63
f 13/13/74 12/12/73 31/123/63
f 14/14/75 13/13/74 31/123/63
f 15/15/76 14/14/75 31/123/63
f 16/16/77 15/15/76 31/123/63
f 17/17/78 16/16/77 31/123/63
f 18/18/79 17/17/78 31/123/63
f 19/19/80 18/18/79 31/123/63
f 20/20/81 19/19/80 31/123/63
f 21/21/82 20/20/81 31/123/63
f 22/22/83 21/21/82 31/123/63
f 23/23/84 22/22/83 31/123/63
f 24/24/85 23/23/84 31/123/63
f 25/25/86 24/24/85 31/123/63
f 26/26/87 25/25/86 31/123/63
f 27/27/88 26/26/87 31/123/63
f 28/28/89 27/27/88 31/123/63
f 29/29/90 28/28/89 31/123/63
f 30/30/91 29/29/90 31/123/63
f 1/1/62 30/30/91 31/123/63
s 3
f 62/121/92 63/120/93 64/124/94
f 63/120/93 65/119/95 64/124/94
f 65/119/95 66/118/96 64/124/94
f 66/118/96 67/117/97 64/124/94
f 67/117/97 68/116/98 64/124/94
f 68/116/98 69/115/99 64/124/94
f 69/115/99 70/114/100 64/124/94
f 70/114/100 71/113/101 64/124/94
f 71/113/101 72/112/102 64/124/94
f 72/112/102 73/111/103 64/124/94
f 73/111/103 74/110/104 64/124/94
f 74/110/104 75/109/105 64/124/94
f 75/109/105 76/108/106 64/124/94
f 76/108/106 77/107/107 64/124/94
f 77/107/107 78/106/108 64/124/94
f 78/106/108 79/105/109 64/124/94
f 79/105/109 80/104/110 64/124/94
f 80/104/110 81/103/111 64/124/94
f 81/103/111 82/102/112 64/124/94
f 82/102/112 83/101/113 64/124/94
f 83/101/113 84/100/114 64/124/94
f 84/100/114 85/99/115 64/124/94
f 85/99/115 86/98/116 64/124/94
f 86/98/116 87/97/117 64/124/94
f 87/97/117 88/96/118 64/124/94
f 88/96/118 89/95/119 64/124/94
f 89/95/119 90/94/120 64/124/94
f 90/94/120 91/93/121 64/124/94
f 91/93/121 92/122/122 64/124/94
f 92/122/122 62/121/92 64/124/94
s 4
f 94/156/123 93/157/124 62/92/125 92/91/126
f 95/158/127 94/156/123 92/91/126 91/90/128
f 96/159/129 95/158/127 91/90/128 90/89/130
f 97/160/131 96/159/129 90/89/130 89/88/132
f 98/161/133 97/160/131 89/88/132 88/87/134
f 99/162/135 98/161/133 88/87/134 87/86/136
f 100/163/137 99/162/135 87/86/136 86/85/138
f 101/164/139 100/163/137 86/85/138 85/84/140
f 102/165/141 101/164/139 85/84/140 84/83/142
f 103/166/143 102/165/141 84/83/142 83/82/144
f 104/167/145 103/166/143 83/82/144 82/81/146
f 105/168/147 104/167/145 82/81/146 81/80/148
f 106/169/149 105/168/147 81/80/148 80/79/150
f 107/170/151 106/169/149 80/79/150 79/78/152
f 108/171/153 107/170/151 79/78/152 78/77/154
f 109/172/155 108/171/153 78/77/154 77/76/156
f 110/173/157 109/172/155 77/76/156 76/75/158
f 111/174/159 110/173/157 76/75/158 75/74/160
f 112/175/161 111/174/159 75/74/160 74/73/162
f 113/176/163 112/175/161 74/73/162 73/72/164
f 114/177/165 113/176/163 73/72/164 72/71/166
f 115/178/167 114/177/165 72/71/166 71/70/168
f 116/179/169 115/178/167 71/70/168 70/69/170
f 117/180/171 116/179/169 70/69/170 69/68/172
f 118/181/173 117/180/171 69/68/172 68/67/174
f 119/182/175 118/181/173 68/67/174 67/66/176
f 120/183/177 119/182/175 67/66/176 66/65/178
f 121/184/179 120/183/177 66/65/178 65/64/180
f 122/185/181 121/184/179 65/64/180 63/63/182
f 93/186/124 122/185/181 63/63/182 62/62/125
s off
f 33/127/183 32/125/184 93/157/185 94/156/186
f 34/128/187 33/127/188 94/156/189 95/158/190
f 35/129/191 34/128/192 95/158/193 96/159/194
f 36/130/195 35/129/196 96/159/197 97/160/198
f 37/131/199 36/130/200 97/160/201 98/161/202
f 38/132/203 37/131/204 98/161/205 99/162/206
f 39/133/207 38/132/208 99/162/209 100/163/210
f 40/134/211 39/133/212 100/163/213 101/164/214
f 41/135/215 40/134/216 101/164/217 102/165/218
f 42/136/219 41/135/220 102/165/221 103/166/222
f 43/137/223 42/136/224 103/166/225 104/167/226
f 44/138/227 43/137/228 104/167/229 105/168/230
f 45/139/231 44/138/232 105/168/233 106/169/234
f 46/140/235 45/139/236 106/169/237 107/170/238
f 47/141/239 46/140/240 107/170/241 108/171/242
f 48/142/243 47/141/244 108/171/245 109/172/246
f 49/143/247 48/142/248 109/172/249 110/173/250
f 50/144/251 49/143/252 110/173/253 111/174/254
f 51/145/255 50/144/256 111/174/257 112/175/258
f 52/146/259 51/145/260 112/175/261 113/176/262
f 53/147/263 52/146/264 113/176/265 114/177/266
f 54/148/267 53/147/268 114/177/269 115/178/270
f 55/149/271 54/148/272 115/178/273 116/179/274
f 56/150/275 55/149/276 116/179/277 117/180/278
f 57/151/279 56/150/280 117/180/281 118/181/282
f 58/152/283 57/151/284 118/181/285 119/182/286
f 59/153/287 58/152/288 119/182/289 120/183/290
f 60/154/291 59/153/292 120/183/293 121/184/294
f 61/155/295 60/154/296 121/184/297 122/185/298
f 32/126/299 61/155/300 122/185/301 93/186/302
